<mxfile host="65bd71144e">
    <diagram id="0gC9hdpC3Vi6iD3xvtct" name="Page-1">
        <mxGraphModel dx="1177" dy="774" grid="1" gridSize="10" guides="1" tooltips="1" connect="1" arrows="1" fold="1" page="1" pageScale="1" pageWidth="850" pageHeight="1100" math="0" shadow="0">
            <root>
                <mxCell id="0"/>
                <mxCell id="1" parent="0"/>
                <mxCell id="5" style="edgeStyle=none;html=1;exitX=1;exitY=0;exitDx=0;exitDy=0;" edge="1" parent="1" source="2" target="4">
                    <mxGeometry relative="1" as="geometry"/>
                </mxCell>
                <mxCell id="6" style="edgeStyle=none;html=1;exitX=0;exitY=0;exitDx=0;exitDy=0;entryX=1;entryY=1;entryDx=0;entryDy=0;" edge="1" parent="1" source="2" target="3">
                    <mxGeometry relative="1" as="geometry"/>
                </mxCell>
                <mxCell id="9" style="edgeStyle=none;html=1;exitX=0.5;exitY=1;exitDx=0;exitDy=0;entryX=0.5;entryY=0;entryDx=0;entryDy=0;" edge="1" parent="1" source="2" target="7">
                    <mxGeometry relative="1" as="geometry"/>
                </mxCell>
                <mxCell id="2" value="Sizing Tool" style="ellipse;whiteSpace=wrap;html=1;aspect=fixed;" vertex="1" parent="1">
                    <mxGeometry x="370" y="330" width="110" height="110" as="geometry"/>
                </mxCell>
                <mxCell id="3" value="UI - Design" style="ellipse;whiteSpace=wrap;html=1;aspect=fixed;" vertex="1" parent="1">
                    <mxGeometry x="170" y="200" width="80" height="80" as="geometry"/>
                </mxCell>
                <mxCell id="4" value="Core - Computations" style="ellipse;whiteSpace=wrap;html=1;aspect=fixed;" vertex="1" parent="1">
                    <mxGeometry x="560" y="200" width="80" height="80" as="geometry"/>
                </mxCell>
                <mxCell id="7" value="Integration" style="ellipse;whiteSpace=wrap;html=1;aspect=fixed;" vertex="1" parent="1">
                    <mxGeometry x="385" y="540" width="80" height="80" as="geometry"/>
                </mxCell>
                <mxCell id="10" value="&lt;h1&gt;Sizing Tool Requirements&lt;/h1&gt;&lt;p&gt;1. Accurate&lt;/p&gt;&lt;p&gt;2. Fast/Responsive&lt;/p&gt;&lt;p&gt;3. Easy integration to other systems.&lt;/p&gt;&lt;p&gt;4. Fully Operational as standalone.&lt;/p&gt;&lt;p&gt;5. Easy enough extensibility.&lt;/p&gt;" style="text;html=1;strokeColor=none;fillColor=none;spacing=5;spacingTop=-20;whiteSpace=wrap;overflow=hidden;rounded=0;" vertex="1" parent="1">
                    <mxGeometry x="40" y="610" width="310" height="180" as="geometry"/>
                </mxCell>
            </root>
        </mxGraphModel>
    </diagram>
</mxfile>